<?xml version="1.0" encoding="UTF-8"?>
<svg version="1.1" xmlns="http://www.w3.org/2000/svg" width="500" height="500">
<path d="M0 0 C3.10104472 2.99029312 3.38715475 5.85194557 4 10 C5.03898438 10.09796875 6.07796875 10.1959375 7.1484375 10.296875 C18.31901111 11.44680672 26.72776398 12.96180222 35.375 20.625 C40.34955643 24.97156278 43.90100388 25.75869447 50.33203125 26.44921875 C54.10596961 27.22831876 55.67151691 28.73042226 57.81640625 31.85546875 C58.20699219 32.56316406 58.59757813 33.27085937 59 34 C59.42152344 34.73863281 59.84304688 35.47726563 60.27734375 36.23828125 C64.13214967 44.58387118 62.95655096 53.09125704 62.04174805 61.97631836 C61.99642698 64.17319729 62.46063039 65.87719712 63 68 C63.06822049 69.6393384 63.08489733 71.28127061 63.0625 72.921875 C63.05476562 73.86546875 63.04703125 74.8090625 63.0390625 75.78125 C63.01322639 77.74479438 62.98718802 79.70833611 62.9609375 81.671875 C62.92571411 85.9926105 62.94343861 90.17473855 63.55859375 94.45703125 C63.94107697 97.52705146 64.04499544 99.10560138 63.0625 101.9375 C61.27698747 108.06615113 61.73168892 113.81698347 63 120 C63.36353177 125.63474251 63.13174245 130.08354679 60 135 C57.68992888 136.80355363 55.72356018 138.13084853 53.1875 139.5 C52.51879883 139.880354 51.85009766 140.26070801 51.16113281 140.65258789 C45.78695886 143.67223514 40.28735098 146.4415628 34.75 149.1484375 C30.54265671 151.20949746 26.39454421 153.3784076 22.25 155.5625 C21.47180908 155.97258301 20.69361816 156.38266602 19.8918457 156.80517578 C11.6191392 161.18026717 3.38594769 165.62932695 -4.84082031 170.09008789 C-21.06587445 178.86509208 -36.15544868 186.54113978 -55 181 C-66.46448286 176.14195661 -66.46448286 176.14195661 -70.80566406 172.47460938 C-72.88677303 170.81524633 -74.44000093 169.75838444 -77 169 C-81.15300092 169.97352814 -84.58502678 171.98873219 -88.25 174.125 C-90.19128053 175.19270429 -92.13393572 176.25791399 -94.078125 177.3203125 C-94.92793945 177.80773926 -95.77775391 178.29516602 -96.65332031 178.79736328 C-103.36672587 182.23787886 -109.41747457 181.3275073 -116.4375 179.3125 C-124.61871706 176.61673732 -130.76454851 173.87579143 -135.015625 166.1015625 C-138.11158439 159.49193492 -138.11158439 159.49193492 -138 156 C-136.89775366 153.52098559 -135.62174931 151.39711977 -134.06640625 149.17578125 C-132.67314837 146.3331269 -133.02411908 144.96610111 -134 142 C-134.70125 141.05125 -135.4025 140.1025 -136.125 139.125 C-138 136 -138 136 -137.8125 132.25 C-137 129 -137 129 -136 127 C-135.34 127 -134.68 127 -134 127 C-134.40515649 122.74206327 -134.40515649 122.74206327 -136.5625 119.1875 C-138.86005429 115.69122173 -138.44468152 112.06565958 -138 108 C-137.33333333 106 -136.66666667 104 -136 102 C-136.66 101.01 -137.32 100.02 -138 99 C-138.56875 92.74375 -138.56875 92.74375 -136.375 89.875 C-135.92125 89.25625 -135.4675 88.6375 -135 88 C-135.66771183 85.60736593 -136.22097385 83.77902615 -138 82 C-137.82071819 77.42831393 -137.50606013 75.51756149 -134.25 72.1875 C-131.68972012 69.34710662 -131.68972012 69.34710662 -132.33984375 66.859375 C-132.92802711 65.1788511 -133.53063463 63.50333349 -134.14453125 61.83203125 C-136.83254447 52.93335734 -135.30206163 42.54789003 -132 34 C-126.60781298 24.04299858 -118.79873314 16.59957771 -108 13 C-97.36410696 10.49743693 -84.31632216 10.50955888 -74.78515625 16.359375 C-71.59537822 18.66409358 -69.00540005 20.99395709 -66.375 23.9375 C-64.19748725 26.30700849 -64.19748725 26.30700849 -61.41015625 25.8828125 C-57.00331792 24.7419815 -53.14226827 22.93124782 -49.0625 20.9375 C-48.22203125 20.53337891 -47.3815625 20.12925781 -46.515625 19.71289062 C-41.44655814 17.25527778 -36.45103809 14.6863247 -31.5 12 C-25.68538864 8.85445621 -19.81424563 5.84143322 -13.875 2.9375 C-12.66553711 2.32745117 -12.66553711 2.32745117 -11.43164062 1.70507812 C-4.2433455 -1.75864889 -4.2433455 -1.75864889 0 0 Z " fill="#1C2026" transform="translate(298,106)"/>
<path d="M0 0 C7.5893836 4.46434329 13.1207999 8.60491476 16.4375 17.0625 C19.27205655 31.47149579 14.05307345 41.64215818 7.4375 54.1875 C6.77227141 55.46095519 6.10748462 56.73464126 5.44311523 58.00854492 C0.15325069 68.12914116 -5.24868507 78.19000589 -10.66577148 88.24291992 C-13.91499469 94.28445104 -17.1029495 100.34172564 -20.125 106.5 C-37.01208787 140.7541823 -37.01208787 140.7541823 -53.6640625 146.515625 C-62.83591109 148.04982513 -72.87003404 148.07762305 -80.8125 142.875 C-81.58078125 142.37742187 -82.3490625 141.87984375 -83.140625 141.3671875 C-93.1866917 134.21518638 -97.69061924 123.46500671 -103.2265625 112.8046875 C-108.03217749 103.58523914 -113.20810762 94.57247594 -118.5 85.625 C-121.35876684 80.76377896 -123.87498336 75.786876 -126.359375 70.7265625 C-128.11455363 67.28226035 -130.08314959 64.01179497 -132.09765625 60.71484375 C-134.30102312 57.06598791 -136.4439659 53.38613747 -138.5625 49.6875 C-138.95155518 49.02202148 -139.34061035 48.35654297 -139.74145508 47.67089844 C-143.18815098 41.61603452 -145.11181304 35.99717804 -144.9375 28.9375 C-144.91945312 27.97972656 -144.90140625 27.02195313 -144.8828125 26.03515625 C-144.85960937 25.32230469 -144.83640625 24.60945313 -144.8125 23.875 C-137.17315066 20.50646801 -130.19759104 18.76216384 -121.8125 19.875 C-120.8225 20.535 -119.8325 21.195 -118.8125 21.875 C-118.8125 22.535 -118.8125 23.195 -118.8125 23.875 C-119.4725 23.875 -120.1325 23.875 -120.8125 23.875 C-121.18182354 29.36013846 -120.48960294 32.20200471 -117.4375 36.75 C-116.69218823 37.89595235 -115.94878861 39.04314999 -115.20703125 40.19140625 C-114.81338379 40.79227051 -114.41973633 41.39313477 -114.01416016 42.01220703 C-111.96617654 45.18695611 -110.04193429 48.4324309 -108.125 51.6875 C-107.71475586 52.38246582 -107.30451172 53.07743164 -106.88183594 53.79345703 C-102.56339352 61.18181259 -98.54473727 68.72982706 -94.50048828 76.27050781 C-91.08278564 82.61491634 -87.51324904 88.76896881 -83.6484375 94.8515625 C-81.1185926 99.0177326 -78.87514327 103.32296528 -76.68823242 107.67797852 C-74.47813084 111.97660554 -72.19870559 115.45282561 -68.8125 118.875 C-66.3491342 119.77113902 -66.3491342 119.77113902 -63.8125 119.5625 C-62.9875 119.56636719 -62.1625 119.57023437 -61.3125 119.57421875 C-55.78754118 118.02895683 -53.49400894 113.53175832 -50.83203125 108.8046875 C-49.75382531 106.79135588 -48.68528501 104.77282672 -47.625 102.75 C-47.05547607 101.68193115 -46.48595215 100.6138623 -45.89916992 99.51342773 C-43.27262591 94.57785022 -40.67925826 89.62513896 -38.09375 84.66796875 C-37.27098392 83.09106725 -36.44807184 81.51424192 -35.625 79.9375 C-35.2230542 79.16615723 -34.8211084 78.39481445 -34.40698242 77.60009766 C-31.73415439 72.51162093 -28.89350519 67.55343485 -25.9375 62.625 C-21.81934497 55.72127841 -17.9160505 48.71363093 -14.125 41.625 C-13.58311035 40.6359668 -13.0412207 39.64693359 -12.48291016 38.62792969 C-11.74306885 37.22655762 -11.74306885 37.22655762 -10.98828125 35.796875 C-10.54395752 34.96768555 -10.09963379 34.13849609 -9.6418457 33.28417969 C-8.65211594 30.40909775 -8.97605194 28.75841787 -9.8125 25.875 C-12.16617713 25.1871764 -12.16617713 25.1871764 -14.8125 24.875 C-15.8025 25.535 -16.7925 26.195 -17.8125 26.875 C-20.5 27 -20.5 27 -22.8125 26.875 C-22.8125 26.215 -22.8125 25.555 -22.8125 24.875 C-24.05 24.99875 -24.05 24.99875 -25.3125 25.125 C-29.8234629 24.80278836 -33.19193736 23.60958966 -36.8125 20.875 C-38.1875 18.1875 -38.1875 18.1875 -37.8125 14.875 C-35.43087459 8.28343068 -30.91186104 4.80075339 -24.75 1.8125 C-16.48890061 -1.88599665 -8.76127721 -2.58529491 0 0 Z " fill="#F2F5F6" transform="translate(319.8125,130.125)"/>
<path d="M0 0 C3.16299241 2.80505563 5.33014718 5.32797521 7.37890625 9.0625 C7.81589844 9.84753906 8.25289063 10.63257813 8.703125 11.44140625 C9.69140625 13.5 9.69140625 13.5 9.69140625 15.5 C11.17640625 15.995 11.17640625 15.995 12.69140625 16.5 C12.69140625 17.49 12.69140625 18.48 12.69140625 19.5 C17.29641093 19.68058842 20.49212429 19.36634754 24.69140625 17.5 C25.68140625 17.5 26.67140625 17.5 27.69140625 17.5 C28.31015625 16.96375 28.92890625 16.4275 29.56640625 15.875 C30.61828125 15.194375 30.61828125 15.194375 31.69140625 14.5 C34.37890625 15.1875 34.37890625 15.1875 36.69140625 16.5 C37.18640625 17.49 37.18640625 17.49 37.69140625 18.5 C40.00140625 18.5 42.31140625 18.5 44.69140625 18.5 C43.32963199 23.32810874 41.19059708 27.28443885 38.6171875 31.546875 C38.31167969 32.19140625 38.00617188 32.8359375 37.69140625 33.5 C38.02140625 34.16 38.35140625 34.82 38.69140625 35.5 C40.34140625 33.85 41.99140625 32.2 43.69140625 30.5 C43.81515625 31.28375 43.93890625 32.0675 44.06640625 32.875 C44.48258618 35.64057822 44.48258618 35.64057822 46.69140625 37.5 C45.31171829 40.25937593 43.93178437 43.01862562 42.55078125 45.77734375 C41.22235057 48.43348471 39.90079693 51.0929542 38.58203125 53.75390625 C38.04932617 54.82608398 38.04932617 54.82608398 37.50585938 55.91992188 C36.80503037 57.33058136 36.10576969 58.74202127 35.40820312 60.15429688 C33.96192122 63.06123724 32.49520805 65.79429729 30.69140625 68.5 C27.13645777 67.07412971 25.80565008 65.5583979 23.95703125 62.23828125 C23.46952393 61.37420654 22.9820166 60.51013184 22.47973633 59.61987305 C21.9720874 58.69343994 21.46443848 57.76700684 20.94140625 56.8125 C20.40990967 55.86221924 19.87841309 54.91193848 19.33081055 53.93286133 C16.33132291 48.54850165 13.39485296 43.13081407 10.50390625 37.6875 C10.19155029 37.10137939 9.87919434 36.51525879 9.55737305 35.91137695 C8.23334299 33.42252914 6.91338833 30.93286505 5.62695312 28.42431641 C0.69807528 18.83386758 -3.59488756 10.68847798 -14.05859375 6.36328125 C-21.99197209 4.25597763 -32.26534171 3.76563431 -39.62109375 7.75 C-46.915945 12.54418216 -49.40044899 18.14699897 -51.30859375 26.5 C-53.07545984 41.37701246 -46.70381981 52.15813444 -39.30859375 64.5 C-37.59588245 67.3724155 -35.88766032 70.24744759 -34.18359375 73.125 C-33.75135498 73.85460937 -33.31911621 74.58421875 -32.8737793 75.3359375 C-30.59940492 79.20468716 -28.45255414 83.08282357 -26.49609375 87.125 C-23.1187847 94.08950736 -19.24942971 100.76801884 -15.41674805 107.48852539 C-12.63155644 112.37679656 -9.87158015 117.27374633 -7.1953125 122.22265625 C-6.70764404 123.12306641 -6.21997559 124.02347656 -5.7175293 124.95117188 C-4.80585329 126.64087671 -3.89940614 128.3334177 -2.99926758 130.02929688 C0.26337399 136.065152 3.67607644 141.48978012 9.50390625 145.375 C10.55578125 146.07625 11.60765625 146.7775 12.69140625 147.5 C11.70140625 149.48 10.71140625 151.46 9.69140625 153.5 C8.04140625 152.84 6.39140625 152.18 4.69140625 151.5 C4.36140625 152.82 4.03140625 154.14 3.69140625 155.5 C2.80654541 154.76221313 2.80654541 154.76221313 1.90380859 154.00952148 C-0.81075532 152.02804349 -3.12734329 150.60672862 -6.30859375 149.5 C-10.60370589 150.29112667 -13.96966519 152.32656342 -17.68359375 154.5625 C-19.60678306 155.63902629 -21.53121352 156.71333907 -23.45703125 157.78515625 C-24.29411621 158.27894775 -25.13120117 158.77273926 -25.99365234 159.28149414 C-32.65018968 162.78526738 -38.76554763 161.81617528 -45.74609375 159.8125 C-53.92731081 157.11673732 -60.07314226 154.37579143 -64.32421875 146.6015625 C-67.42017814 139.99193492 -67.42017814 139.99193492 -67.30859375 136.5 C-66.20634741 134.02098559 -64.93034306 131.89711977 -63.375 129.67578125 C-61.98174212 126.8331269 -62.33271283 125.46610111 -63.30859375 122.5 C-64.00984375 121.55125 -64.71109375 120.6025 -65.43359375 119.625 C-67.30859375 116.5 -67.30859375 116.5 -67.12109375 112.75 C-66.30859375 109.5 -66.30859375 109.5 -65.30859375 107.5 C-64.64859375 107.5 -63.98859375 107.5 -63.30859375 107.5 C-63.71375024 103.24206327 -63.71375024 103.24206327 -65.87109375 99.6875 C-68.16864804 96.19122173 -67.75327527 92.56565958 -67.30859375 88.5 C-66.64192708 86.5 -65.97526042 84.5 -65.30859375 82.5 C-65.96859375 81.51 -66.62859375 80.52 -67.30859375 79.5 C-67.87734375 73.24375 -67.87734375 73.24375 -65.68359375 70.375 C-65.22984375 69.75625 -64.77609375 69.1375 -64.30859375 68.5 C-64.97630558 66.10736593 -65.5295676 64.27902615 -67.30859375 62.5 C-67.12931194 57.92831393 -66.81465388 56.01756149 -63.55859375 52.6875 C-60.99831387 49.84710662 -60.99831387 49.84710662 -61.6484375 47.359375 C-62.23662086 45.6788511 -62.83922838 44.00333349 -63.453125 42.33203125 C-66.14113822 33.43335734 -64.61065538 23.04789003 -61.30859375 14.5 C-55.91640673 4.54299858 -48.10732689 -2.90042229 -37.30859375 -6.5 C-24.27827621 -9.56595707 -10.57531781 -8.47791657 0 0 Z " fill="#22272D" transform="translate(227.30859375,125.5)"/>
<path d="M0 0 C0.7532959 0.00757324 1.5065918 0.01514648 2.28271484 0.02294922 C8.13564014 0.19617254 12.76414096 1.10668627 17.6875 4.4375 C18.61755859 5.05625 18.61755859 5.05625 19.56640625 5.6875 C26.47024684 10.93620818 29.90754056 18.85012379 33.6875 26.4375 C38.62170108 36.09426655 43.70309577 45.66985122 49.125 55.0625 C49.74387085 56.15461792 49.74387085 56.15461792 50.37524414 57.26879883 C52.63921215 61.36612601 52.63921215 61.36612601 56.6875 63.4375 C57.19539063 62.32632813 57.70328125 61.21515625 58.2265625 60.0703125 C64.46166466 46.55255012 64.46166466 46.55255012 67.625 41.5625 C72.42161597 33.96232179 75.93104483 25.58526883 79.6875 17.4375 C79.96722656 18.08460938 80.24695313 18.73171875 80.53515625 19.3984375 C80.91542969 20.07132813 81.29570312 20.74421875 81.6875 21.4375 C84.12813441 22.10897918 84.12813441 22.10897918 86.6875 22.4375 C87.6775 23.0975 88.6675 23.7575 89.6875 24.4375 C91.59455102 25.13833005 91.59455102 25.13833005 93.625 25.625 C94.29402344 25.80417969 94.96304688 25.98335937 95.65234375 26.16796875 C97.96478944 26.47422355 99.47546019 26.13245296 101.6875 25.4375 C104.1875 24.6875 104.1875 24.6875 106.6875 24.4375 C109 25.875 109 25.875 110.6875 27.4375 C110.24491363 33.72854911 107.23120689 38.67728839 104.3125 44.125 C103.77375244 45.1444873 103.23500488 46.16397461 102.67993164 47.21435547 C98.87264558 54.36534467 94.87677527 61.38967407 90.76635742 68.36962891 C87.37505809 74.15876131 84.21275618 80.0439938 81.125 86 C77.57169167 92.84064099 74.00329111 99.66977222 70.3125 106.4375 C69.9198999 107.17299072 69.5272998 107.90848145 69.12280273 108.66625977 C66.76216756 112.95763809 64.31841717 116.14347205 60.6875 119.4375 C60.3575 119.7675 60.0275 120.0975 59.6875 120.4375 C57.61328125 120.78125 57.61328125 120.78125 55 120.9375 C54.15050781 121.0096875 53.30101562 121.081875 52.42578125 121.15625 C47.20162973 119.78500338 44.7841114 115.27163263 42.12329102 110.82128906 C40.47269589 107.84111146 38.88472311 104.83472226 37.3125 101.8125 C32.28502211 92.29074181 32.28502211 92.29074181 26.75 83.0625 C22.02050933 75.61606788 17.98232643 67.78797046 13.87329102 59.98681641 C9.30404466 51.37207898 4.33096869 43.14139554 -1.3125 35.1875 C-3.08302683 32.39618084 -3.57878861 30.72582323 -3.125 27.4375 C-2.856875 26.4475 -2.58875 25.4575 -2.3125 24.4375 C-1.6525 24.4375 -0.9925 24.4375 -0.3125 24.4375 C-2.12054525 22.09694828 -3.00766889 21.48295727 -5.984375 21.0390625 C-12.30233348 21.08716878 -16.67629431 21.61939715 -22.3125 24.4375 C-23.6325 24.4375 -24.9525 24.4375 -26.3125 24.4375 C-24.57837237 15.25682429 -22.19869748 8.90424272 -14.3125 3.4375 C-9.41315736 0.45836081 -5.58161508 -0.07815998 0 0 Z " fill="#4A627E" transform="translate(201.3125,129.5625)"/>
<path d="M0 0 C3.1875 -0.3125 3.1875 -0.3125 7 0 C10.99695964 3.37674177 13.42441012 7.07163061 15.9375 11.625 C16.56527344 12.75164062 17.19304687 13.87828125 17.83984375 15.0390625 C19.01686174 17.18952441 20.18617718 19.34400114 21.35302734 21.5 C23.96728912 26.31942482 26.62041596 31.10952965 29.359375 35.859375 C29.91753906 36.83003906 30.47570312 37.80070312 31.05078125 38.80078125 C32.19425033 40.78542298 33.34278662 42.76715288 34.49609375 44.74609375 C39.14228535 52.85797606 39.14228535 52.85797606 40.203125 57.140625 C40.59757812 58.55601562 40.59757812 58.55601562 41 60 C41.99 60.33 42.98 60.66 44 61 C45 62.75 45 62.75 46 65 C47.94243918 68.51093521 47.94243918 68.51093521 50.625 71.4375 C52.64057463 73.72792572 52.67063865 76.03574786 53 79 C53.66 79 54.32 79 55 79 C55.1546875 79.8971875 55.1546875 79.8971875 55.3125 80.8125 C56.08876455 83.28243264 57.07088921 84.32251235 59 86 C59 84.35 59 82.7 59 81 C59.66 81 60.32 81 61 81 C61.061875 80.113125 61.12375 79.22625 61.1875 78.3125 C62 75 62 75 64.375 72.6875 C67.41108804 69.57912415 68.14478322 67.2023184 69.2265625 63.0859375 C70.09806474 60.73552236 71.23482256 59.7318722 73 58 C73.35919321 56.00448218 73.69496569 54.00451121 74 52 C74.66 51.67 75.32 51.34 76 51 C76.495 50.154375 76.99 49.30875 77.5 48.4375 C77.995 47.633125 78.49 46.82875 79 46 C79.66 46 80.32 46 81 46 C81.268125 45.13375 81.53625 44.2675 81.8125 43.375 C84.29631329 36.31574117 88.22540902 29.85994115 91.8125 23.3125 C92.32103516 22.38244141 92.82957031 21.45238281 93.35351562 20.49414062 C94.38008652 18.61664784 95.4114989 16.7417941 96.44775391 14.86962891 C97.51788928 12.89127546 98.54938656 10.89169794 99.54833984 8.87646484 C100.3036499 7.38107178 100.3036499 7.38107178 101.07421875 5.85546875 C101.51725342 4.94821045 101.96028809 4.04095215 102.41674805 3.10620117 C104 1 104 1 106.53833008 0.10668945 C109 0 109 0 111.3125 1.4375 C111.869375 1.953125 112.42625 2.46875 113 3 C112.55741363 9.29104911 109.54370689 14.23978839 106.625 19.6875 C106.08625244 20.7069873 105.54750488 21.72647461 104.99243164 22.77685547 C101.18514558 29.92784467 97.18927527 36.95217407 93.07885742 43.93212891 C89.68755809 49.72126131 86.52525618 55.6064938 83.4375 61.5625 C79.88419167 68.40314099 76.31579111 75.23227222 72.625 82 C72.2323999 82.73549072 71.8397998 83.47098145 71.43530273 84.22875977 C69.07466756 88.52013809 66.63091717 91.70597205 63 95 C62.67 95.33 62.34 95.66 62 96 C59.92578125 96.34375 59.92578125 96.34375 57.3125 96.5 C56.03826172 96.60828125 56.03826172 96.60828125 54.73828125 96.71875 C49.51412973 95.34750338 47.0966114 90.83413263 44.43579102 86.38378906 C42.78519589 83.40361146 41.19722311 80.39722226 39.625 77.375 C34.59752211 67.85324181 34.59752211 67.85324181 29.0625 58.625 C24.33300933 51.17856788 20.29482643 43.35047046 16.18579102 35.54931641 C11.61654466 26.93457898 6.64346869 18.70389554 1 10.75 C-0.77052683 7.95868084 -1.26628861 6.28832323 -0.8125 3 C-0.544375 2.01 -0.27625 1.02 0 0 Z " fill="#1B2228" transform="translate(199,154)"/>
<path d="M0 0 C0.33 0 0.66 0 1 0 C2.61615139 6.46460556 2.86233126 12.17856402 0.07958984 18.30517578 C-1.84011588 21.31887935 -4.75286357 22.84818362 -7.8125 24.5 C-8.48120117 24.880354 -9.14990234 25.26070801 -9.83886719 25.65258789 C-15.20795171 28.66937548 -20.70215346 31.43653465 -26.234375 34.140625 C-30.53052288 36.24514141 -34.76692032 38.45935642 -39 40.6875 C-39.78270264 41.09911377 -40.56540527 41.51072754 -41.37182617 41.93481445 C-45.94827898 44.35348879 -50.49934458 46.81451057 -55.03515625 49.30859375 C-56.03869141 49.8600708 -57.04222656 50.41154785 -58.07617188 50.97973633 C-60.04195732 52.0627504 -62.00556574 53.14972698 -63.96679688 54.2409668 C-64.85560547 54.73121338 -65.74441406 55.22145996 -66.66015625 55.7265625 C-67.45043213 56.16564941 -68.24070801 56.60473633 -69.05493164 57.05712891 C-71 58 -71 58 -73 58 C-73 57.34 -73 56.68 -73 56 C-72.34 56 -71.68 56 -71 56 C-70.773125 55.319375 -70.54625 54.63875 -70.3125 53.9375 C-68.9453874 50.8777718 -67.28313009 48.51153995 -65.296875 45.8359375 C-64.01888084 44.0267289 -62.93964258 42.19092531 -61.875 40.25 C-59.55170109 36.22294855 -58.39839016 34.46613005 -54 33 C-52.98962354 32.01048526 -51.99007385 31.00982859 -51 30 C-48.47312326 28.59402914 -45.95299864 27.26796309 -43.3671875 25.98046875 C-42.61591583 25.59941483 -41.86464417 25.2183609 -41.09060669 24.82575989 C-38.68817525 23.6074304 -36.28209438 22.39658794 -33.875 21.1875 C-18.31712586 13.47330521 -18.31712586 13.47330521 -4.0625 3.625 C-2 2 -2 2 0 2 C0 1.34 0 0.68 0 0 Z " fill="#42474C" transform="translate(359,221)"/>
<path d="M0 0 C3.10104472 2.99029312 3.38715475 5.85194557 4 10 C5.03898437 10.09796875 6.07796875 10.1959375 7.1484375 10.296875 C15.32944579 11.14677341 22.53194197 12.30187511 30 16 C26.63759717 17.12080094 26.21532319 16.93568182 23.125 15.625 C15.90579741 12.76085984 8.6641364 12.02830492 1 13.625 C-1.79284255 14.90505283 -4.21729425 16.36553862 -6.8125 18 C-10.09964245 20.04708273 -12.74406976 21.35914457 -16.5625 22 C-21.04916232 22.78438152 -23.8871863 24.72765457 -27.55078125 27.35546875 C-31.20372725 29.80824429 -35.11386356 31.63688428 -39.07421875 33.5390625 C-41.7584677 34.87939509 -44.2611213 36.36407736 -46.8125 37.9375 C-49.7973347 39.64778849 -51.63344663 40.29256747 -55.0625 39.8125 C-56.031875 39.544375 -57.00125 39.27625 -58 39 C-58.495 37.515 -58.495 37.515 -59 36 C-59.433125 35.566875 -59.86625 35.13375 -60.3125 34.6875 C-62.61739519 32.38260481 -64.23930753 29.73210901 -66 27 C-65.67 26.34 -65.34 25.68 -65 25 C-64.41549072 25.19182861 -63.83098145 25.38365723 -63.22875977 25.58129883 C-59.45140411 26.29092364 -56.29940532 24.25907992 -52.9375 22.6875 C-52.14529053 22.32648193 -51.35308105 21.96546387 -50.53686523 21.59350586 C-43.97306319 18.55725514 -37.58971601 15.21006989 -31.21020508 11.80810547 C-25.39428039 8.71354713 -19.54496861 5.70356766 -13.625 2.8125 C-12.83424072 2.41361572 -12.04348145 2.01473145 -11.22875977 1.60375977 C-4.27677749 -1.74298856 -4.27677749 -1.74298856 0 0 Z " fill="#5A5F67" transform="translate(298,106)"/>
<path d="M0 0 C0.33 0 0.66 0 1 0 C2.73192551 7.65768715 3.66890629 14.4118557 1.39453125 22.02734375 C-0.73367149 25.03782661 -3.79709289 26.14114636 -7.0625 27.625 C-14.11628856 30.97309667 -20.82309637 34.72153344 -27.50219727 38.76220703 C-30.31292849 40.45514418 -32.87576653 41.95858884 -36 43 C-36.33 43.66 -36.66 44.32 -37 45 C-37.33 44.67 -37.66 44.34 -38 44 C-38.61875 44.66 -39.2375 45.32 -39.875 46 C-42 48 -42 48 -44 48 C-44 48.66 -44 49.32 -44 50 C-45.32 50.66 -46.64 51.32 -48 52 C-48.33 51.34 -48.66 50.68 -49 50 C-48.07746206 47.96310929 -47.05686513 45.97054208 -46 44 C-45.3378897 42.67544583 -44.68054489 41.34850155 -44.02734375 40.01953125 C-43.33075652 38.61717391 -42.63414153 37.21483036 -41.9375 35.8125 C-41.58623047 35.10158203 -41.23496094 34.39066406 -40.87304688 33.65820312 C-40.53208984 32.97306641 -40.19113281 32.28792969 -39.83984375 31.58203125 C-39.38146118 30.65741089 -39.38146118 30.65741089 -38.91381836 29.71411133 C-36.51461565 25.21376343 -36.51461565 25.21376343 -34.22265625 24.26171875 C-33.50980469 24.07222656 -32.79695313 23.88273437 -32.0625 23.6875 C-22.5920108 20.75255606 -14.51398281 15.15015191 -6.43359375 9.5390625 C-4 8 -4 8 -2 8 C-1.34 5.36 -0.68 2.72 0 0 Z " fill="#50565D" transform="translate(359,188)"/>
<path d="M0 0 C9.11661808 -0.3090379 9.11661808 -0.3090379 13 2 C18.7758895 7.49413879 21.26652517 14.59915101 22.5625 22.375 C21.75686495 26.13463023 19.90163934 27.54972678 17 30 C16.195625 30.721875 15.39125 31.44375 14.5625 32.1875 C11.78529645 34.15186348 9.26207215 35.08965428 6 36 C6.15726562 35.29746094 6.31453125 34.59492188 6.4765625 33.87109375 C8.71517941 21.59211293 5.71034241 10.91369181 0 0 Z " fill="#6D7E8B" transform="translate(339,132)"/>
<path d="M0 0 C0 0.99 0 1.98 0 3 C0.66 3 1.32 3 2 3 C2 5.31 2 7.62 2 10 C1.34 10 0.68 10 0 10 C-0.20367187 10.57878906 -0.40734375 11.15757812 -0.6171875 11.75390625 C-2.55221873 14.89696545 -4.95492637 16.08032229 -8.125 17.9375 C-9.30622677 18.63631798 -10.48721698 19.33553598 -11.66796875 20.03515625 C-13.31732422 21.00775391 -13.31732422 21.00775391 -15 22 C-16.48279319 22.95271253 -17.96271078 23.90994375 -19.4375 24.875 C-22.49496219 26.80295386 -25.49702538 28.03668198 -29 29 C-27.53113319 24.11639644 -25.50924092 19.792923 -23.125 15.3125 C-22.78597656 14.64927734 -22.44695312 13.98605469 -22.09765625 13.30273438 C-18.78009517 7.03973408 -15.1172509 4.90496576 -8.9375 1.75 C-7.89464844 1.20859375 -6.85179687 0.6671875 -5.77734375 0.109375 C-3 -1 -3 -1 0 0 Z " fill="#5A636B" transform="translate(359,171)"/>
<path d="M0 0 C0.7532959 0.00757324 1.5065918 0.01514648 2.28271484 0.02294922 C8.13564014 0.19617254 12.76414096 1.10668627 17.6875 4.4375 C18.61755859 5.05625 18.61755859 5.05625 19.56640625 5.6875 C25.88134747 10.48849203 30.48235057 17.57600201 31.6875 25.4375 C30.35416667 24.10416667 29.02083333 22.77083333 27.6875 21.4375 C26.98625 20.756875 26.285 20.07625 25.5625 19.375 C23.6875 17.4375 23.6875 17.4375 21.6875 14.4375 C18.63320927 13.22465124 18.63320927 13.22465124 15.6875 12.4375 C15.666875 11.509375 15.64625 10.58125 15.625 9.625 C14.99571079 6.09955401 14.99571079 6.09955401 11.375 4.625 C6.77745394 3.14443432 3.46420981 2.24956246 -1.375 2.6875 C-2.66083984 2.78804687 -2.66083984 2.78804687 -3.97265625 2.890625 C-6.67941233 3.5232558 -7.45277709 4.45660535 -9.3125 6.4375 C-10.3025 6.52 -11.2925 6.6025 -12.3125 6.6875 C-15.34213157 7.08402966 -15.34213157 7.08402966 -16.3671875 9.05078125 C-17.10770069 10.81038163 -17.71870425 12.6231241 -18.3125 14.4375 C-17.6525 14.1075 -16.9925 13.7775 -16.3125 13.4375 C-14.31289988 13.397508 -12.31202758 13.39403201 -10.3125 13.4375 C-10.3125 14.4275 -10.3125 15.4175 -10.3125 16.4375 C-9.301875 16.540625 -8.29125 16.64375 -7.25 16.75 C-3.10031792 17.47454767 -0.09893737 18.66019266 3.6875 20.4375 C3.6875 21.4275 3.6875 22.4175 3.6875 23.4375 C-1.0625 22.5625 -1.0625 22.5625 -3.3125 21.4375 C-10.47460954 20.8723563 -15.90323117 21.23286559 -22.3125 24.4375 C-23.6325 24.4375 -24.9525 24.4375 -26.3125 24.4375 C-24.57837237 15.25682429 -22.19869748 8.90424272 -14.3125 3.4375 C-9.41315736 0.45836081 -5.58161508 -0.07815998 0 0 Z " fill="#6E91B1" transform="translate(201.3125,129.5625)"/>
<path d="M0 0 C-1.50079481 5.09312282 -3.68877852 9.50794857 -6.25 14.125 C-6.61996094 14.82753906 -6.98992187 15.53007812 -7.37109375 16.25390625 C-9.95881102 20.92592821 -12.32618699 23.3929309 -17 26 C-20.915141 22.64416485 -23.0795774 18.71933638 -25 14 C-25 13.34 -25 12.68 -25 12 C-23.92621094 11.46890625 -22.85242188 10.9378125 -21.74609375 10.390625 C-20.30984158 9.67719255 -18.87364672 8.96364471 -17.4375 8.25 C-16.73302734 7.90195313 -16.02855469 7.55390625 -15.30273438 7.1953125 C-11.83623146 5.47004838 -8.43612335 3.69746636 -5.09765625 1.734375 C-2 0 -2 0 0 0 Z " fill="#424E58" transform="translate(272,144)"/>
<path d="M0 0 C9.11661808 -0.3090379 9.11661808 -0.3090379 13 2 C16.40373025 5.48108776 18.56534864 8.07395127 19 13 C18.39671875 13.06058594 17.7934375 13.12117187 17.171875 13.18359375 C16.37265625 13.26738281 15.5734375 13.35117188 14.75 13.4375 C13.96109375 13.51871094 13.1721875 13.59992188 12.359375 13.68359375 C10.17635361 13.97634993 8.1226818 14.42064419 6 15 C5.73445313 14.25234375 5.46890625 13.5046875 5.1953125 12.734375 C4.84210938 11.74953125 4.48890625 10.7646875 4.125 9.75 C3.77695312 8.77546875 3.42890625 7.8009375 3.0703125 6.796875 C2.16725355 4.43705673 1.17921582 2.23094884 0 0 Z " fill="#5D6871" transform="translate(339,132)"/>
<path d="M0 0 C0.99 0.66 1.98 1.32 3 2 C3 2.66 3 3.32 3 4 C2.34 4 1.68 4 1 4 C0.67 5.65 0.34 7.3 0 9 C-0.48984375 8.67257813 -0.9796875 8.34515625 -1.484375 8.0078125 C-5.04269563 6.58227411 -8.48203011 6.78845652 -12.25 6.875 C-12.99507812 6.88402344 -13.74015625 6.89304688 -14.5078125 6.90234375 C-16.33868059 6.92581642 -18.16938238 6.96168475 -20 7 C-20.12375 7.763125 -20.2475 8.52625 -20.375 9.3125 C-21 12 -21 12 -23 15 C-23 11.37 -23 7.74 -23 4 C-15.21215823 0.72090873 -8.49608725 -1.12756713 0 0 Z " fill="#C0D2E0" transform="translate(198,150)"/>
<path d="M0 0 C0.226875 0.639375 0.45375 1.27875 0.6875 1.9375 C1.83047912 4.25262441 1.83047912 4.25262441 4.4375 4.625 C5.283125 4.74875 6.12875 4.8725 7 5 C7.99 5.66 8.98 6.32 10 7 C11.94603274 7.59070014 11.94603274 7.59070014 14 8 C17.02555412 8.64178421 18.30491252 9.20327502 21 11 C19.35 13.97 17.7 16.94 16 20 C14 16 14 16 14 15 C11.69 14.67 9.38 14.34 7 14 C7 12.68 7 11.36 7 10 C6.01 10.33 5.02 10.66 4 11 C0.8125 9.0625 0.8125 9.0625 -2 7 C-1.34 4.69 -0.68 2.38 0 0 Z " fill="#8798AC" transform="translate(281,147)"/>
<path d="M0 0 C1.4540625 0.0309375 1.4540625 0.0309375 2.9375 0.0625 C2.9375 1.0525 2.9375 2.0425 2.9375 3.0625 C3.948125 3.165625 4.95875 3.26875 6 3.375 C10.14968208 4.09954767 13.15106263 5.28519266 16.9375 7.0625 C16.9375 8.0525 16.9375 9.0425 16.9375 10.0625 C12.1875 9.1875 12.1875 9.1875 9.9375 8.0625 C2.77539046 7.4973563 -2.65323117 7.85786559 -9.0625 11.0625 C-10.3825 11.0625 -11.7025 11.0625 -13.0625 11.0625 C-12.68815384 8.36603781 -12.28502008 7.26727603 -10.25 5.39453125 C-9.1671875 4.64236328 -9.1671875 4.64236328 -8.0625 3.875 C-7.340625 3.36582031 -6.61875 2.85664063 -5.875 2.33203125 C-5.276875 1.91308594 -4.67875 1.49414062 -4.0625 1.0625 C-3.0625 0.0625 -3.0625 0.0625 0 0 Z " fill="#8BA4BB" transform="translate(188.0625,142.9375)"/>
<path d="M0 0 C0.75410156 0.00451172 1.50820312 0.00902344 2.28515625 0.01367188 C4.14847127 0.02546501 6.01174555 0.04340058 7.875 0.0625 C8.535 1.7125 9.195 3.3625 9.875 5.0625 C7.5489143 5.44313221 5.21444736 5.77519945 2.875 6.0625 C2.545 5.7325 2.215 5.4025 1.875 5.0625 C0.18891034 4.99044489 -1.50000659 4.97863932 -3.1875 5 C-4.10660156 5.00902344 -5.02570313 5.01804688 -5.97265625 5.02734375 C-6.68292969 5.03894531 -7.39320313 5.05054688 -8.125 5.0625 C-9.63430183 8.4488251 -9.63430183 8.4488251 -10.125 12.0625 C-10.785 12.0625 -11.445 12.0625 -12.125 12.0625 C-12.31991883 7.87174525 -12.05830576 4.82170564 -10.125 1.0625 C-6.93675432 -0.53162284 -3.49603338 -0.03924735 0 0 Z " fill="#DBE5EE" transform="translate(188.125,155.9375)"/>
<path d="M0 0 C2.97 0.99 5.94 1.98 9 3 C9 3.66 9 4.32 9 5 C9.639375 5.103125 10.27875 5.20625 10.9375 5.3125 C15.06477326 6.23903073 19.00642949 7.61660629 23 9 C20.3359375 11.9765625 20.3359375 11.9765625 17.3125 12.1875 C16.549375 12.125625 15.78625 12.06375 15 12 C15 11.34 15 10.68 15 10 C13.7625 10.12375 13.7625 10.12375 12.5 10.25 C8.043102 9.93165014 4.53788685 8.78640253 1 6 C0 2.75 0 2.75 0 0 Z " fill="#E2E8EE" transform="translate(282,145)"/>
<path d="M0 0 C0.33 0 0.66 0 1 0 C2.81946091 7.27784363 2.83140636 13.52624442 -1 20 C-3.6875 20.9375 -3.6875 20.9375 -6 21 C-6 20.01 -6 19.02 -6 18 C-5.01 17.67 -4.02 17.34 -3 17 C-3 15.68 -3 14.36 -3 13 C-2.34 13 -1.68 13 -1 13 C-1 12.01 -1 11.02 -1 10 C-3.0745356 8.7763932 -3.0745356 8.7763932 -6 9 C-6.99 9.33 -7.98 9.66 -9 10 C-9.33 9.34 -9.66 8.68 -10 8 C-8.71283353 6.99421411 -7.42011342 5.99553202 -6.125 5 C-5.40570313 4.443125 -4.68640625 3.88625 -3.9453125 3.3125 C-2 2 -2 2 0 2 C0 1.34 0 0.68 0 0 Z " fill="#626B74" transform="translate(359,221)"/>
<path d="M0 0 C-0.5 1.875 -0.5 1.875 -2 4 C-3.80859375 4.46484375 -3.80859375 4.46484375 -5.9375 4.8125 C-8.0906578 5.17792236 -8.0906578 5.17792236 -10 6 C-11.99148816 9.31342388 -11.99148816 9.31342388 -13 13 C-14.1911808 16.1481207 -14.51512121 16.76910534 -17.625 18.25 C-18.40875 18.4975 -19.1925 18.745 -20 19 C-18.44769064 10.96356507 -15.76644144 6.62629803 -9 2 C-3.66442953 -1.22147651 -3.66442953 -1.22147651 0 0 Z " fill="#69839F" transform="translate(196,131)"/>
<path d="M0 0 C0.66 0.66 1.32 1.32 2 2 C1.01 2.495 1.01 2.495 0 3 C0 2.01 0 1.02 0 0 Z M0 3 C0.33 3.99 0.66 4.98 1 6 C1.66 6.66 2.32 7.32 3 8 C-0.90456127 11.53269829 -3.80177328 13.63855967 -9 15 C-8.79888439 13.20496816 -8.5631149 11.4137926 -8.3125 9.625 C-8.18488281 8.62726563 -8.05726563 7.62953125 -7.92578125 6.6015625 C-7 4 -7 4 -4.54296875 2.5859375 C-2 2 -2 2 0 3 Z " fill="#5E717D" transform="translate(354,153)"/>
<path d="M0 0 C3.1121052 2.86129133 5.07447833 5.60495466 7.015625 9.3515625 C7.54414063 10.36734375 8.07265625 11.383125 8.6171875 12.4296875 C9.15601563 13.48414063 9.69484375 14.53859375 10.25 15.625 C10.80429688 16.6871875 11.35859375 17.749375 11.9296875 18.84375 C16 26.72371459 16 26.72371459 16 29 C13 28 13 28 11.875 26.1875 C11.05358216 24.13395539 10.46289828 22.16019196 10 20 C9.34 20 8.68 20 8 20 C7.7525 18.88625 7.505 17.7725 7.25 16.625 C6.38994661 12.95384802 6.38994661 12.95384802 3.875 11.5625 C3.25625 11.376875 2.6375 11.19125 2 11 C2 9.68 2 8.36 2 7 C1.484375 6.505 0.96875 6.01 0.4375 5.5 C-0.036875 5.005 -0.51125 4.51 -1 4 C-0.6875 1.8125 -0.6875 1.8125 0 0 Z " fill="#5D7895" transform="translate(233,155)"/>
<path d="M0 0 C0 0.99 0 1.98 0 3 C0.66 3 1.32 3 2 3 C2 5.31 2 7.62 2 10 C-0.475 9.505 -0.475 9.505 -3 9 C-3.33 8.01 -3.66 7.02 -4 6 C-5.65 5.67 -7.3 5.34 -9 5 C-9.33 5.66 -9.66 6.32 -10 7 C-13.0625 7.625 -13.0625 7.625 -16 8 C-15.34 7.67 -14.68 7.34 -14 7 C-14 6.34 -14 5.68 -14 5 C-12.23628182 3.96692229 -10.46374967 2.94887951 -8.6875 1.9375 C-7.70136719 1.36902344 -6.71523438 0.80054688 -5.69921875 0.21484375 C-3 -1 -3 -1 0 0 Z " fill="#6C7A85" transform="translate(359,171)"/>
<path d="M0 0 C1.9451 2.91765 2.45276317 4.62537285 3 8 C2.01 8 1.02 8 0 8 C0 7.34 0 6.68 0 6 C-3.34252724 5.92572162 -5.8035914 5.93453047 -9 7 C-10.20882096 9.00016466 -10.20882096 9.00016466 -11 11 C-11.33 8.36 -11.66 5.72 -12 3 C-8.96474514 0.97649676 -7.80573798 0.67875982 -4.3125 0.375 C-3.50425781 0.30023438 -2.69601562 0.22546875 -1.86328125 0.1484375 C-0.94095703 0.07496094 -0.94095703 0.07496094 0 0 Z " fill="#768490" transform="translate(358,144)"/>
<path d="M0 0 C0.66 1.32 1.32 2.64 2 4 C0.2097939 4.67057887 -1.58221489 5.3363469 -3.375 6 C-4.37273437 6.37125 -5.37046875 6.7425 -6.3984375 7.125 C-9 8 -9 8 -11 8 C-11.33 9.32 -11.66 10.64 -12 12 C-14.86724686 11.42655063 -15.8614515 11.1385485 -18 9 C-17.49025635 8.76289307 -16.9805127 8.52578613 -16.45532227 8.28149414 C-14.15665983 7.21074407 -11.85956706 6.13666805 -9.5625 5.0625 C-8.76005859 4.68931641 -7.95761719 4.31613281 -7.13085938 3.93164062 C-6.36708984 3.57392578 -5.60332031 3.21621094 -4.81640625 2.84765625 C-4.10943604 2.51773682 -3.40246582 2.18781738 -2.67407227 1.84790039 C-1.0108841 1.11465443 -1.0108841 1.11465443 0 0 Z " fill="#65696F" transform="translate(260,121)"/>
<path d="M0 0 C0 0.99 0 1.98 0 3 C-4.75 2.125 -4.75 2.125 -7 1 C-14.21074262 0.43101879 -19.520808 0.89538716 -26 4 C-28.4375 3.6875 -28.4375 3.6875 -30 3 C-28.35 2.67 -26.7 2.34 -25 2 C-25 1.34 -25 0.68 -25 0 C-16.42747552 -2.78270428 -8.39573295 -4.19786648 0 0 Z " fill="#94ADC3" transform="translate(205,150)"/>
<path d="M0 0 C2.13562754 2.13562754 2.63318342 3.06546739 3 6 C2.34 6.66 1.68 7.32 1 8 C0.3574765 10.06874034 0.3574765 10.06874034 0 12 C0.66 12.33 1.32 12.66 2 13 C0.329375 13.4640625 0.329375 13.4640625 -1.375 13.9375 C-4.7945155 14.82326483 -4.7945155 14.82326483 -7 16 C-5.35433477 10.31497465 -2.70967216 5.23318364 0 0 Z " fill="#E8ECEF" transform="translate(284,210)"/>
<path d="M0 0 C0.66 0 1.32 0 2 0 C4.29648649 2.5614657 5 3.47967572 5 7 C5.66 7.33 6.32 7.66 7 8 C8.35278115 9.98689731 9.68568305 11.98745218 11 14 C11.66 14.66 12.32 15.32 13 16 C12.34 16 11.68 16 11 16 C11 16.66 11 17.32 11 18 C6.00374893 16.33458298 4.31965517 11.51967196 2 7 C1.1186206 4.64965494 0.53466024 2.4594371 0 0 Z " fill="#111E2D" transform="translate(230,146)"/>
<path d="M0 0 C0.33 0 0.66 0 1 0 C1.33895656 1.72807318 1.67091525 3.45751974 2 5.1875 C2.185625 6.15042969 2.37125 7.11335937 2.5625 8.10546875 C2.96877612 10.7934206 3.07933572 13.28771019 3 16 C2.34 14.68 1.68 13.36 1 12 C-1.97 12 -4.94 12 -8 12 C-6.71034824 10.62437146 -5.37310707 9.29233607 -4 8 C-3.34 8 -2.68 8 -2 8 C-1.34 5.36 -0.68 2.72 0 0 Z " fill="#828991" transform="translate(359,188)"/>
<path d="M0 0 C0.99 0.66 1.98 1.32 3 2 C2.67 2.66 2.34 3.32 2 4 C0.4221875 3.505 0.4221875 3.505 -1.1875 3 C-7.56874057 1.32623198 -10.19123552 1.97944247 -16 5 C-18.31646675 5.77059882 -20.63504172 6.38511085 -23 7 C-23 6.01 -23 5.02 -23 4 C-15.36065066 0.63146801 -8.38509104 -1.11283616 0 0 Z " fill="#A7BDCF" transform="translate(198,150)"/>
<path d="M0 0 C0.66 0.33 1.32 0.66 2 1 C2.625 3.0625 2.625 3.0625 3 5 C2.01 5.33 1.02 5.66 0 6 C0 6.66 0 7.32 0 8 C-0.9075 7.814375 -1.815 7.62875 -2.75 7.4375 C-5.68314324 7.04265379 -7.2644657 7.05308428 -10 8 C-6.91367389 4.7373124 -4.06516496 1.97764782 0 0 Z " fill="#616971" transform="translate(349,200)"/>
<path d="M0 0 C7.38461538 0.49230769 7.38461538 0.49230769 10.5 3.0625 C10.995 3.701875 11.49 4.34125 12 5 C10.515 7.475 10.515 7.475 9 10 C7 6.125 7 6.125 7 5 C4.69 4.67 2.38 4.34 0 4 C0 2.68 0 1.36 0 0 Z " fill="#7689A1" transform="translate(288,157)"/>
<path d="M0 0 C0.66 0.33 1.32 0.66 2 1 C-0.65239137 3.01958733 -3.32260869 5.01370428 -6 7 C-6.56976563 7.43699219 -7.13953125 7.87398437 -7.7265625 8.32421875 C-11.4651937 11.0562954 -11.4651937 11.0562954 -14.375 10.75 C-14.91125 10.5025 -15.4475 10.255 -16 10 C-16 9.34 -16 8.68 -16 8 C-13.37964982 6.63610475 -10.75443001 5.28367827 -8.125 3.9375 C-7.37863281 3.54755859 -6.63226563 3.15761719 -5.86328125 2.75585938 C-4.79013672 2.20961914 -4.79013672 2.20961914 -3.6953125 1.65234375 C-3.03547363 1.31195068 -2.37563477 0.97155762 -1.69580078 0.62084961 C-1.13618652 0.41596924 -0.57657227 0.21108887 0 0 Z " fill="#515A62" transform="translate(263,148)"/>
<path d="M0 0 C-1.485 1.485 -1.485 1.485 -3 3 C-2.34 3.33 -1.68 3.66 -1 4 C0.05352843 6.30965848 1.05719096 8.6429774 2 11 C1.01 11 0.02 11 -1 11 C-2.140625 9.3203125 -2.140625 9.3203125 -3.25 7.125 C-5.08572903 3.94756077 -6.22686895 2.47065568 -9.8125 1.5 C-10.864375 1.335 -11.91625 1.17 -13 1 C-13 0.67 -13 0.34 -13 0 C-8.34462607 -0.83796731 -4.62921525 -1.0161692 0 0 Z " fill="#5E7895" transform="translate(214,153)"/>
<path d="M0 0 C0.66 0 1.32 0 2 0 C1.53971382 4.94807642 0.23523509 7.28899504 -3 11 C-3.53625 11.9075 -4.0725 12.815 -4.625 13.75 C-6 16 -6 16 -8 17 C-6.51095825 13.10391502 -4.75621287 9.40902982 -2.875 5.6875 C-2.06675781 4.08455078 -2.06675781 4.08455078 -1.2421875 2.44921875 C-0.62730469 1.23685547 -0.62730469 1.23685547 0 0 Z " fill="#5A697C" transform="translate(278,154)"/>
<path d="M0 0 C-1.21934486 4.03321763 -2.55954927 7.54269479 -5 11 C-5.66 11 -6.32 11 -7 11 C-8.27596315 7.17211056 -7.62344752 5.63343017 -6 2 C-3.81469372 0.49760193 -2.64044305 0 0 0 Z " fill="#575E67" transform="translate(272,144)"/>
<path d="M0 0 C-1.44664032 5.54545455 -1.44664032 5.54545455 -3.75 7.4375 C-6.73119977 8.18279994 -9.0329561 7.67432816 -12 7 C-9.20232475 3.70861735 -4.40323273 0 0 0 Z " fill="#4A4E55" transform="translate(331,240)"/>
<path d="M0 0 C3.57983659 3.34118082 5.89716734 5.73768141 6.125 10.75 C6.08375 11.4925 6.0425 12.235 6 13 C4.68 12.34 3.36 11.68 2 11 C2 9.68 2 8.36 2 7 C1.484375 6.505 0.96875 6.01 0.4375 5.5 C-0.036875 5.005 -0.51125 4.51 -1 4 C-0.6875 1.8125 -0.6875 1.8125 0 0 Z " fill="#6387AB" transform="translate(233,155)"/>
<path d="M0 0 C0.99 0.33 1.98 0.66 3 1 C3 1.99 3 2.98 3 4 C3.66 4 4.32 4 5 4 C5 6.31 5 8.62 5 11 C4.01 11 3.02 11 2 11 C2 9.35 2 7.7 2 6 C1.38125 5.690625 0.7625 5.38125 0.125 5.0625 C-1.25 4.375 -2.625 3.6875 -4 3 C-2.1875 1.4375 -2.1875 1.4375 0 0 Z " fill="#76818C" transform="translate(356,170)"/>
<path d="M0 0 C0.66 0 1.32 0 2 0 C1.62403791 2.78211944 1.32681541 4.5879284 -0.4375 6.8125 C-2 8 -2 8 -4 8 C-3.34 11.3 -2.68 14.6 -2 18 C-4.0625 16.4375 -4.0625 16.4375 -6 14 C-6.11265565 7.91659504 -3.93252219 5.2350239 0 1 C0 0.67 0 0.34 0 0 Z " fill="#5D6164" transform="translate(166,174)"/>
<path d="M0 0 C1.18851563 0.00902344 2.37703125 0.01804688 3.6015625 0.02734375 C4.51679688 0.03894531 5.43203125 0.05054688 6.375 0.0625 C6.375 0.3925 6.375 0.7225 6.375 1.0625 C5.62734375 1.07667969 4.8796875 1.09085938 4.109375 1.10546875 C-2.10446599 1.28626652 -2.10446599 1.28626652 -7.3125 4.3125 C-8.68913671 7.19688168 -8.98497941 8.91268014 -8.625 12.0625 C-9.285 12.0625 -9.945 12.0625 -10.625 12.0625 C-10.81991883 7.87174525 -10.55830576 4.82170564 -8.625 1.0625 C-5.74084117 -0.37957941 -3.20778472 -0.03144887 0 0 Z " fill="#D0DBE4" transform="translate(186.625,155.9375)"/>
<path d="M0 0 C0.639375 0.763125 1.27875 1.52625 1.9375 2.3125 C4.89655356 5.33124629 8.09623698 6.24120303 12.109375 7.32421875 C14 8 14 8 15 10 C9.63446669 10.53655333 5.23566571 9.33596583 1 6 C0 2.75 0 2.75 0 0 Z " fill="#BFC9D4" transform="translate(282,145)"/>
<path d="M0 0 C0.33 0.99 0.66 1.98 1 3 C-3.53333333 5.8962963 -3.53333333 5.8962963 -6.25 6.5 C-6.8275 6.665 -7.405 6.83 -8 7 C-8.33 7.99 -8.66 8.98 -9 10 C-9.66 9.67 -10.32 9.34 -11 9 C-5.12834225 0 -5.12834225 0 0 0 Z " fill="#E9EDF2" transform="translate(294,134)"/>
<path d="M0 0 C0.66 1.32 1.32 2.64 2 4 C1.34 4.66 0.68 5.32 0 6 C0.33 6.66 0.66 7.32 1 8 C0.01 8.33 -0.98 8.66 -2 9 C-2.6814823 10.89179203 -2.6814823 10.89179203 -3 13 C-3.33 13.99 -3.66 14.98 -4 16 C-4.99 15.67 -5.98 15.34 -7 15 C-3.535 7.575 -3.535 7.575 0 0 Z " fill="#3C4857" transform="translate(266,176)"/>
<path d="M0 0 C1.32 0.66 2.64 1.32 4 2 C2.9024777 4.99324263 2.32317108 5.84610901 -0.625 7.25 C-1.40875 7.4975 -2.1925 7.745 -3 8 C-3 4.42424104 -1.91159393 2.94704065 0 0 Z " fill="#636E77" transform="translate(355,179)"/>
<path d="M0 0 C1.32 0.33 2.64 0.66 4 1 C0.09543873 4.53269829 -2.80177328 6.63855967 -8 8 C-7.67 6.35 -7.34 4.7 -7 3 C-5.5459375 2.814375 -5.5459375 2.814375 -4.0625 2.625 C-2.5465625 2.315625 -2.5465625 2.315625 -1 2 C-0.67 1.34 -0.34 0.68 0 0 Z " fill="#5A656F" transform="translate(353,160)"/>
<path d="M0 0 C4.71403788 0.47939368 8.66579301 0.96834048 13 3 C12.34 4.32 11.68 5.64 11 7 C7.37 5.02 3.74 3.04 0 1 C0 0.67 0 0.34 0 0 Z " fill="#9FADBE" transform="translate(289,154)"/>
<path d="M0 0 C0.99 0.33 1.98 0.66 3 1 C-1.39785521 4.86478185 -5.97281595 8 -12 8 C-11.67 7.01 -11.34 6.02 -11 5 C-8.93359375 4.26953125 -8.93359375 4.26953125 -6.4375 3.8125 C-5.61121094 3.65394531 -4.78492188 3.49539062 -3.93359375 3.33203125 C-3.29550781 3.22246094 -2.65742188 3.11289063 -2 3 C-2 2.34 -2 1.68 -2 1 C-1.34 0.67 -0.68 0.34 0 0 Z " fill="#31353C" transform="translate(258,148)"/>
<path d="M0 0 C0.99 0.66 1.98 1.32 3 2 C2.01 2.33 1.02 2.66 0 3 C-0.33 5.31 -0.66 7.62 -1 10 C-1.99 9.67 -2.98 9.34 -4 9 C-4.33 10.32 -4.66 11.64 -5 13 C-4.125 6.25 -4.125 6.25 -3 4 C-2.34 4 -1.68 4 -1 4 C-0.67 2.68 -0.34 1.36 0 0 Z " fill="#44484D" transform="translate(165,229)"/>
<path d="M0 0 C0.66 0.66 1.32 1.32 2 2 C1.01 2.33 0.02 2.66 -1 3 C-1.73323796 5.01508358 -1.73323796 5.01508358 -2 7 C-4.86724686 6.42655063 -5.8614515 6.1385485 -8 4 C-5.36 2.68 -2.72 1.36 0 0 Z " fill="#707379" transform="translate(250,126)"/>
<path d="M0 0 C0.90105469 0.11085937 1.80210937 0.22171875 2.73046875 0.3359375 C3.76107422 0.47902344 3.76107422 0.47902344 4.8125 0.625 C1.40898662 2.65719488 -1.5107927 2.99391039 -5.4375 3.25 C-7.05398437 3.36214844 -7.05398437 3.36214844 -8.703125 3.4765625 C-9.52296875 3.52554688 -10.3428125 3.57453125 -11.1875 3.625 C-4.8125 -0.625 -4.8125 -0.625 0 0 Z " fill="#B4C9DC" transform="translate(193.1875,151.375)"/>
<path d="M0 0 C0.66 0.33 1.32 0.66 2 1 C0.02 4.63 -1.96 8.26 -4 12 C-4.66 12 -5.32 12 -6 12 C-5.67 10.02 -5.34 8.04 -5 6 C-4.34 6 -3.68 6 -3 6 C-2.67 4.68 -2.34 3.36 -2 2 C-1.34 2 -0.68 2 0 2 C0 1.34 0 0.68 0 0 Z " fill="#DEDFE1" transform="translate(295,241)"/>
<path d="M0 0 C0.33 0 0.66 0 1 0 C1 5.61 1 11.22 1 17 C-2.35470435 12.52706087 -2.29117251 11.33816259 -2 6 C-2 5.01 -2 4.02 -2 3 C-1.34 2.01 -0.68 1.02 0 0 Z " fill="#363E45" transform="translate(359,157)"/>
<path d="M0 0 C0.66 0 1.32 0 2 0 C2.86375896 1.61992165 3.71575854 3.24611861 4.5625 4.875 C5.03816406 5.77992188 5.51382813 6.68484375 6.00390625 7.6171875 C6.33261719 8.40351563 6.66132813 9.18984375 7 10 C6.67 10.66 6.34 11.32 6 12 C0.44419134 4.88610478 0.44419134 4.88610478 0 0 Z " fill="#6D8AAD" transform="translate(226,143)"/>
<path d="M0 0 C-0.639375 0.28875 -1.27875 0.5775 -1.9375 0.875 C-4.15206079 1.82823451 -4.15206079 1.82823451 -5 4 C-7.64860427 4.59355614 -10.29197322 4.74209269 -13 5 C-8.55011262 1.27171598 -5.82569178 -0.15745113 0 0 Z " fill="#33383E" transform="translate(285,127)"/>
<path d="M0 0 C0.99 0.66 1.98 1.32 3 2 C2.67 2.66 2.34 3.32 2 4 C-0.3140622 4.73075648 -2.64828869 5.40138258 -5 6 C-5.33 5.01 -5.66 4.02 -6 3 C-4.02 2.01 -2.04 1.02 0 0 Z " fill="#7F848A" transform="translate(274,114)"/>
<path d="M0 0 C0.33 0.66 0.66 1.32 1 2 C1.66 2.144375 2.32 2.28875 3 2.4375 C3.66 2.623125 4.32 2.80875 5 3 C5.33 3.99 5.66 4.98 6 6 C4.5625 8.1875 4.5625 8.1875 3 10 C1.68 7.03 0.36 4.06 -1 1 C-0.67 0.67 -0.34 0.34 0 0 Z " fill="#DDE1E3" transform="translate(217,240)"/>
<path d="M0 0 C0.99 0.495 0.99 0.495 2 1 C2 2.32 2 3.64 2 5 C3.32 5.33 4.64 5.66 6 6 C5.34 7.32 4.68 8.64 4 10 C1.2027092 7.93243723 0.97307727 6.85559629 0.3125 3.3125 C0.209375 2.219375 0.10625 1.12625 0 0 Z " fill="#111926" transform="translate(249,178)"/>
<path d="M0 0 C1.98 0.66 3.96 1.32 6 2 C6.625 4.875 6.625 4.875 7 8 C6.34 8.66 5.68 9.32 5 10 C4.16121545 8.71186658 3.32913217 7.41936744 2.5 6.125 C2.0359375 5.40570313 1.571875 4.68640625 1.09375 3.9453125 C0 2 0 2 0 0 Z " fill="#464951" transform="translate(232,131)"/>
<path d="M0 0 C0.598125 0.20625 1.19625 0.4125 1.8125 0.625 C0.4925 0.955 -0.8275 1.285 -2.1875 1.625 C-2.31125 2.388125 -2.435 3.15125 -2.5625 3.9375 C-3.1875 6.625 -3.1875 6.625 -5.1875 9.625 C-5.48046875 3.5703125 -5.48046875 3.5703125 -5.1875 1.625 C-2.1875 -0.375 -2.1875 -0.375 0 0 Z " fill="#BCC7D0" transform="translate(180.1875,155.375)"/>
<path d="M0 0 C1.9451 2.91765 2.45276317 4.62537285 3 8 C2.01 8 1.02 8 0 8 C0 7.34 0 6.68 0 6 C-1.32 5.34 -2.64 4.68 -4 4 C-2.68 2.68 -1.36 1.36 0 0 Z " fill="#84939F" transform="translate(358,144)"/>
<path d="M0 0 C1.4540625 0.0309375 1.4540625 0.0309375 2.9375 0.0625 C2.9375 1.0525 2.9375 2.0425 2.9375 3.0625 C0.2975 3.7225 -2.3425 4.3825 -5.0625 5.0625 C-3.81634615 0.07788462 -3.81634615 0.07788462 0 0 Z " fill="#809BB7" transform="translate(188.0625,142.9375)"/>
<path d="M0 0 C0.66 0 1.32 0 2 0 C1.67 1.32 1.34 2.64 1 4 C-2.81489674 5.46726798 -5.29011622 4.43336419 -9 3 C-9 2.67 -9 2.34 -9 2 C-6.94921875 1.77213542 -4.8984375 1.54427083 -2.84765625 1.31640625 C-0.98859771 1.18113386 -0.98859771 1.18113386 0 0 Z " fill="#D4D7DD" transform="translate(262,248)"/>
<path d="M0 0 C0.66 0 1.32 0 2 0 C3.32421875 1.6796875 3.32421875 1.6796875 4.6875 3.875 C5.14511719 4.59429687 5.60273438 5.31359375 6.07421875 6.0546875 C6.37972656 6.69664062 6.68523437 7.33859375 7 8 C6.67 8.66 6.34 9.32 6 10 C2.51668565 6.98112756 1.20842856 4.43090471 0 0 Z " fill="#0D1D2B" transform="translate(240,165)"/>
<path d="M0 0 C-0.625 2.375 -0.625 2.375 -2 5 C-5.125 6.3125 -5.125 6.3125 -8 7 C-7.62005832 4.24542282 -7.1926367 3.17979426 -5.125 1.25 C-3 0 -3 0 0 0 Z " fill="#111B20" transform="translate(358,162)"/>
<path d="M0 0 C0.66 0.33 1.32 0.66 2 1 C0.02 5.455 0.02 5.455 -2 10 C-2.66 10 -3.32 10 -4 10 C-3.43454163 6.04179141 -2.19097652 3.3340947 0 0 Z " fill="#6A8094" transform="translate(181,138)"/>
<path d="M0 0 C-2.36292656 2.52588702 -3.66462511 3.88820837 -7 5 C-7.66 4.34 -8.32 3.68 -9 3 C-6.38997624 -0.48003168 -4.1689578 -0.27793052 0 0 Z " fill="#4D515A" transform="translate(356,241)"/>
<path d="M0 0 C0.66 0 1.32 0 2 0 C1.67 2.31 1.34 4.62 1 7 C-0.32 7.33 -1.64 7.66 -3 8 C-1.125 2.25 -1.125 2.25 0 0 Z " fill="#25252C" transform="translate(323,190)"/>
<path d="M0 0 C0.66 0 1.32 0 2 0 C3.0625 2.375 3.0625 2.375 4 5 C3.67 5.66 3.34 6.32 3 7 C1.68 6.67 0.36 6.34 -1 6 C-0.67 4.02 -0.34 2.04 0 0 Z " fill="#4E6A8A" transform="translate(220,169)"/>
<path d="M0 0 C0.66 0.33 1.32 0.66 2 1 C0.90931332 4.77545388 0.0916909 7.47043472 -3 10 C-3 5.66905042 -2.03435531 3.72965139 0 0 Z " fill="#1D2631" transform="translate(278,149)"/>
<path d="M0 0 C1.0326802 2.78823655 1.04509293 3.8677274 0.0625 6.75 C-0.288125 7.4925 -0.63875 8.235 -1 9 C-1.66 9 -2.32 9 -3 9 C-2.30058404 5.85262818 -1.23921302 2.97411124 0 0 Z M-6 9 C-5.01 9.33 -4.02 9.66 -3 10 C-3.99 10.33 -4.98 10.66 -6 11 C-6 10.34 -6 9.68 -6 9 Z " fill="#778FA6" transform="translate(182,139)"/>
<path d="M0 0 C1.32 0 2.64 0 4 0 C4 0.99 4 1.98 4 3 C2.02 3.99 0.04 4.98 -2 6 C-1.125 1.125 -1.125 1.125 0 0 Z " fill="#1E2C39" transform="translate(185,130)"/>
<path d="M0 0 C0.66 0.33 1.32 0.66 2 1 C-0.12669835 3.33936818 -2.06224856 4.80653848 -5 6 C-5.99 6 -6.98 6 -8 6 C-8 5.34 -8 4.68 -8 4 C-6.71349294 3.30289269 -5.42059335 2.61757124 -4.125 1.9375 C-3.40570313 1.55464844 -2.68640625 1.17179687 -1.9453125 0.77734375 C-1.30335938 0.52082031 -0.66140625 0.26429688 0 0 Z " fill="#12161C" transform="translate(185,256)"/>
<path d="M0 0 C2.97 0.33 5.94 0.66 9 1 C6 4 6 4 3.3125 4.1875 C2.1678125 4.0946875 2.1678125 4.0946875 1 4 C0.67 2.68 0.34 1.36 0 0 Z " fill="#D5DBE3" transform="translate(296,153)"/>
<path d="M0 0 C0.66 0.66 1.32 1.32 2 2 C-3.75 6 -3.75 6 -6 6 C-6 5.34 -6 4.68 -6 4 C-5.34 4 -4.68 4 -4 4 C-3.67 3.01 -3.34 2.02 -3 1 C-2.01 0.67 -1.02 0.34 0 0 Z " fill="#35393D" transform="translate(292,273)"/>
<path d="M0 0 C1.5 1.375 1.5 1.375 3 3 C3 3.66 3 4.32 3 5 C2.01 5.33 1.02 5.66 0 6 C-0.99 5.01 -1.98 4.02 -3 3 C-2.01 2.01 -1.02 1.02 0 0 Z " fill="#161B22" transform="translate(211,234)"/>
<path d="M0 0 C0.66 0.33 1.32 0.66 2 1 C2.625 3.0625 2.625 3.0625 3 5 C0.69 5 -1.62 5 -4 5 C-3 2 -3 2 0 0 Z " fill="#6A747D" transform="translate(349,200)"/>
<path d="M0 0 C0.99 0 1.98 0 3 0 C2.625 2.9375 2.625 2.9375 2 6 C1.01 6.495 1.01 6.495 0 7 C-0.38133299 5.0085944 -0.71325582 3.00720923 -1 1 C-0.67 0.67 -0.34 0.34 0 0 Z " fill="#495A72" transform="translate(268,174)"/>
<path d="M0 0 C0.66 0.33 1.32 0.66 2 1 C0.7391988 2.03319813 -0.53403258 3.05124379 -1.8125 4.0625 C-2.87404297 4.91521484 -2.87404297 4.91521484 -3.95703125 5.78515625 C-4.63121094 6.18605469 -5.30539062 6.58695313 -6 7 C-6.99 6.67 -7.98 6.34 -9 6 C-3.30379747 1.25316456 -3.30379747 1.25316456 0 0 Z " fill="#5B646C" transform="translate(263,148)"/>
<path d="M0 0 C1.875 0.625 1.875 0.625 4 2 C5.25 5.125 5.25 5.125 6 8 C3 7 3 7 1.875 5.125 C1.18238818 3.44294273 0.5752415 1.72572449 0 0 Z " fill="#536E8C" transform="translate(243,176)"/>
<path d="M0 0 C0.66 0 1.32 0 2 0 C2.99 2.31 3.98 4.62 5 7 C4.01 7 3.02 7 2 7 C1.01 5.02 0.02 3.04 -1 1 C-0.67 0.67 -0.34 0.34 0 0 Z " fill="#5A718F" transform="translate(211,157)"/>
<path d="M0 0 C0.66 0 1.32 0 2 0 C0.6302836 3.99500618 -1.25722422 6.80009492 -4 10 C-3.43697042 6.05879291 -2.3208055 3.2491277 0 0 Z " fill="#4E5258" transform="translate(164,192)"/>
<path d="M0 0 C0.928125 0.2784375 0.928125 0.2784375 1.875 0.5625 C4.04160178 1.23686176 4.04160178 1.23686176 6 0 C5.67 1.98 5.34 3.96 5 6 C4.34 6 3.68 6 3 6 C2.01 4.02 1.02 2.04 0 0 Z " fill="#455A71" transform="translate(226,187)"/>
<path d="M0 0 C2.31 0 4.62 0 7 0 C6.67 0.99 6.34 1.98 6 3 C5.01 3 4.02 3 3 3 C2.67 3.66 2.34 4.32 2 5 C1.34 3.35 0.68 1.7 0 0 Z " fill="#596F88" transform="translate(289,168)"/>
<path d="M0 0 C1.32 0.33 2.64 0.66 4 1 C4.33 2.32 4.66 3.64 5 5 C5.66 5 6.32 5 7 5 C6.67 5.99 6.34 6.98 6 8 C3.33264727 5.51047079 1.44253657 3.36591866 0 0 Z " fill="#262B2E" transform="translate(200,164)"/>
<path d="M0 0 C0.66 0 1.32 0 2 0 C1.25 5.75 1.25 5.75 -1 8 C-1.625 5.6875 -1.625 5.6875 -2 3 C-1.34 2.01 -0.68 1.02 0 0 Z " fill="#6C7A8F" transform="translate(278,154)"/>
<path d="M0 0 C0.226875 0.639375 0.45375 1.27875 0.6875 1.9375 C1.84016601 4.27432836 1.84016601 4.27432836 4.5625 4.625 C5.7690625 4.810625 5.7690625 4.810625 7 5 C7.33 5.66 7.66 6.32 8 7 C4.62537285 6.45276317 2.91765 5.9451 0 4 C0 2.68 0 1.36 0 0 Z " fill="#A2AEBA" transform="translate(281,147)"/>
<path d="M0 0 C0.99 0.33 1.98 0.66 3 1 C2.34 2.32 1.68 3.64 1 5 C-0.32 4.67 -1.64 4.34 -3 4 C-2.67 3.34 -2.34 2.68 -2 2 C-1.34 2 -0.68 2 0 2 C0 1.34 0 0.68 0 0 Z " fill="#6B787F" transform="translate(358,207)"/>
<path d="M0 0 C1.32 0.66 2.64 1.32 4 2 C3.67 2.99 3.34 3.98 3 5 C1.02 5.33 -0.96 5.66 -3 6 C-2.34 5.01 -1.68 4.02 -1 3 C-0.34 3 0.32 3 1 3 C0.67 2.01 0.34 1.02 0 0 Z " fill="#191D22" transform="translate(187,193)"/>
<path d="M0 0 C0.99 0.66 1.98 1.32 3 2 C1.35 3.98 -0.3 5.96 -2 8 C-2.33 7.01 -2.66 6.02 -3 5 C-1.5625 2.3125 -1.5625 2.3125 0 0 Z " fill="#102029" transform="translate(295,171)"/>
<path d="M0 0 C0.99 0.33 1.98 0.66 3 1 C0.66666667 3.33333333 -1.66666667 5.66666667 -4 8 C-4 5 -4 5 -3 3 C-2.34 3 -1.68 3 -1 3 C-0.67 2.01 -0.34 1.02 0 0 Z " fill="#3A3C42" transform="translate(287,135)"/>
<path d="M0 0 C3.36016893 1.12005631 4.69064913 2.37211797 7 5 C7 5.66 7 6.32 7 7 C4.13302508 5.71480435 2.02392288 4.42870746 0 2 C0 1.34 0 0.68 0 0 Z " fill="#102030" transform="translate(221,134)"/>
</svg>
